<svg width="145" height="72" viewBox="0 0 145 72" fill="none" xmlns="http://www.w3.org/2000/svg">
<path d="M7.5 43.0317C7.5 43.0317 0 58.5317 0 65.5317C1.43507e-10 72.5317 5 68.5317 5.5 70.5317C6 72.5317 13.5 70.0317 13.5 70.0317C13.5 70.0317 15.36 68.5447 16.5 67.5317C24.5598 60.37 32.5 45.0317 32.5 45.0317C32.5 45.0317 33.4962 38.95 35.5 40.0317C36.6526 40.6539 36.4142 41.8601 37 43.0317C37.5858 44.2033 37.8827 44.8764 38.5 46.0317C40.9502 50.6174 42.2752 53.4043 46 57.0317C48.6021 59.5657 50.0319 61.4526 53.5 62.5317C56.6696 63.5179 58.8466 63.5683 62 62.5317C65.9437 61.2353 70 55.5317 70 55.5317L77.5 40.0317C77.5 40.0317 82.5 25.0317 85 25.0317C87.5 25.0317 89 30.5317 91.5 36.0317C94 41.5317 92.5552 39.6665 94 41.5317C95.8906 43.9725 97.5806 45.0272 100.5 46.0317C104.008 47.2387 106.398 46.9205 110 46.0317C113.647 45.1319 118.5 41.5317 118.5 41.5317L141.5 19.5317C141.5 19.5317 140.123 14.893 141.5 12.5317C142.196 11.3391 143.575 11.3452 144 10.0317C144.809 7.53249 139.5 5.03169 139.5 5.03169C139.5 5.03169 132.556 3.61545 128.5 5.03169C124.181 6.54003 119.5 12.5317 119.5 12.5317C119.5 12.5317 110 26.0317 107.5 25.0317C105 24.0317 103.519 14.1992 99 8.53169C96.4178 5.29296 95.329 2.6116 91.5 1.03169C86.9731 -0.836205 83.4713 0.034289 79 2.03169C72.3675 4.99452 68 17.0317 68 17.0317L58 43.0317L51.5 15.0317C51.5 15.0317 49.1992 8.85496 46 6.53169C43.9461 5.04009 42.5093 4.41499 40 4.03169C37.079 3.58549 35.2741 4.01405 32.5 5.03169C28.2047 6.60734 23.5 12.5317 23.5 12.5317L7.5 43.0317Z" fill="#ECB6AB" fill-opacity="0.65"/>
</svg>
